<?xml version="1.0" encoding="UTF-8" standalone="no"?>
<!-- Created with Inkscape (http://www.inkscape.org/) -->

<svg
   width="63.381176mm"
   height="31.568504mm"
   viewBox="0 0 63.381176 31.568504"
   version="1.1"
   id="svg1"
   xmlns:inkscape="http://www.inkscape.org/namespaces/inkscape"
   xmlns:sodipodi="http://sodipodi.sourceforge.net/DTD/sodipodi-0.dtd"
   xmlns="http://www.w3.org/2000/svg"
   xmlns:svg="http://www.w3.org/2000/svg">
  <sodipodi:namedview
     id="namedview1"
     pagecolor="#ffffff"
     bordercolor="#000000"
     borderopacity="0.25"
     inkscape:showpageshadow="2"
     inkscape:pageopacity="0.0"
     inkscape:pagecheckerboard="0"
     inkscape:deskcolor="#d1d1d1"
     inkscape:document-units="mm">
    <inkscape:page
       x="0"
       y="-8.9644316e-22"
       width="63.381176"
       height="31.568504"
       id="page2"
       margin="0"
       bleed="0" />
  </sodipodi:namedview>
  <defs
     id="defs1">
    <clipPath
       clipPathUnits="userSpaceOnUse"
       id="clipPath44">
      <path
         d="M 0,0 H 1213 V 1621 H 0 Z"
         transform="scale(1,-0.99999999)"
         id="path44" />
    </clipPath>
    <clipPath
       clipPathUnits="userSpaceOnUse"
       id="clipPath45">
      <path
         d="M 0,0 H 1213 V 1621 H 0 Z"
         id="path45" />
    </clipPath>
    <clipPath
       clipPathUnits="userSpaceOnUse"
       id="clipPath46">
      <path
         d="M 0,0 H 1213 V 1621 H 0 Z"
         transform="translate(-183.62125,-626.70435)"
         id="path46" />
    </clipPath>
    <clipPath
       clipPathUnits="userSpaceOnUse"
       id="clipPath47">
      <path
         d="M 0,0 H 1213 V 1621 H 0 Z"
         transform="translate(-191.95455,-630.8711)"
         id="path47" />
    </clipPath>
    <clipPath
       clipPathUnits="userSpaceOnUse"
       id="clipPath48">
      <path
         d="M 0,0 H 1213 V 1621 H 0 Z"
         transform="translate(-197.50479,-626.70435)"
         id="path48" />
    </clipPath>
    <clipPath
       clipPathUnits="userSpaceOnUse"
       id="clipPath49">
      <path
         d="M 0,0 H 1213 V 1621 H 0 Z"
         transform="translate(-312.49998,-630.8711)"
         id="path49" />
    </clipPath>
    <clipPath
       clipPathUnits="userSpaceOnUse"
       id="clipPath50">
      <path
         d="M 0,0 H 1213 V 1621 H 0 Z"
         transform="translate(-317.36249,-626.70435)"
         id="path50" />
    </clipPath>
    <clipPath
       clipPathUnits="userSpaceOnUse"
       id="clipPath51">
      <path
         d="M 0,0 H 1213 V 1621 H 0 Z"
         transform="translate(-520.42689,-630.8711)"
         id="path51" />
    </clipPath>
    <clipPath
       clipPathUnits="userSpaceOnUse"
       id="clipPath52">
      <path
         d="M 0,0 H 1213 V 1621 H 0 Z"
         transform="translate(-525.28943,-626.70435)"
         id="path52" />
    </clipPath>
    <clipPath
       clipPathUnits="userSpaceOnUse"
       id="clipPath53">
      <path
         d="M 0,0 H 1213 V 1621 H 0 Z"
         id="path53" />
    </clipPath>
    <clipPath
       clipPathUnits="userSpaceOnUse"
       id="clipPath54">
      <path
         d="M 0,0 H 1213 V 1621 H 0 Z"
         transform="scale(1,-0.99999999)"
         id="path54" />
    </clipPath>
    <clipPath
       clipPathUnits="userSpaceOnUse"
       id="clipPath55">
      <path
         d="M 0,0 H 1213 V 1621 H 0 Z"
         transform="translate(-399.62479,-611.6051)"
         id="path55" />
    </clipPath>
    <clipPath
       clipPathUnits="userSpaceOnUse"
       id="clipPath56">
      <path
         d="M 0,0 H 1213 V 1621 H 0 Z"
         transform="translate(-413.5102,-615.77185)"
         id="path56" />
    </clipPath>
    <clipPath
       clipPathUnits="userSpaceOnUse"
       id="clipPath57">
      <path
         d="M 0,0 H 1213 V 1621 H 0 Z"
         transform="translate(-418.37061,-611.6051)"
         id="path57" />
    </clipPath>
    <clipPath
       clipPathUnits="userSpaceOnUse"
       id="clipPath58">
      <path
         d="M 0,0 H 1213 V 1621 H 0 Z"
         transform="translate(-432.82062,-611.6051)"
         id="path58" />
    </clipPath>
    <clipPath
       clipPathUnits="userSpaceOnUse"
       id="clipPath59">
      <path
         d="M 0,0 H 1213 V 1621 H 0 Z"
         transform="translate(-445.62061,-611.6051)"
         id="path59" />
    </clipPath>
    <clipPath
       clipPathUnits="userSpaceOnUse"
       id="clipPath60">
      <path
         d="M 0,0 H 1213 V 1621 H 0 Z"
         transform="translate(-241.08728,-520.28844)"
         id="path60" />
    </clipPath>
    <clipPath
       clipPathUnits="userSpaceOnUse"
       id="clipPath61">
      <path
         d="M 0,0 H 1213 V 1621 H 0 Z"
         transform="translate(-249.42061,-520.28844)"
         id="path61" />
    </clipPath>
    <clipPath
       clipPathUnits="userSpaceOnUse"
       id="clipPath62">
      <path
         d="M 0,0 H 1213 V 1621 H 0 Z"
         transform="translate(-264.70391,-520.28844)"
         id="path62" />
    </clipPath>
    <clipPath
       clipPathUnits="userSpaceOnUse"
       id="clipPath63">
      <path
         d="M 0,0 H 1213 V 1621 H 0 Z"
         transform="translate(-278.00758,-520.28844)"
         id="path63" />
    </clipPath>
    <clipPath
       clipPathUnits="userSpaceOnUse"
       id="clipPath64">
      <path
         d="M 0,0 H 1213 V 1621 H 0 Z"
         transform="scale(1,-0.99999999)"
         id="path64" />
    </clipPath>
    <clipPath
       clipPathUnits="userSpaceOnUse"
       id="clipPath65">
      <path
         d="M 0,0 H 1213 V 1621 H 0 Z"
         id="path65" />
    </clipPath>
    <clipPath
       clipPathUnits="userSpaceOnUse"
       id="clipPath66">
      <path
         d="M 0,0 H 1213 V 1621 H 0 Z"
         transform="scale(1,-0.99999999)"
         id="path66" />
    </clipPath>
    <clipPath
       clipPathUnits="userSpaceOnUse"
       id="clipPath67">
      <path
         d="M 0,0 H 1213 V 1621 H 0 Z"
         id="path67" />
    </clipPath>
    <clipPath
       clipPathUnits="userSpaceOnUse"
       id="clipPath68">
      <path
         d="M 0,0 H 1213 V 1621 H 0 Z"
         transform="scale(1,-0.99999999)"
         id="path68" />
    </clipPath>
    <clipPath
       clipPathUnits="userSpaceOnUse"
       id="clipPath69">
      <path
         d="M 0,0 H 1213 V 1621 H 0 Z"
         id="path69" />
    </clipPath>
    <clipPath
       clipPathUnits="userSpaceOnUse"
       id="clipPath70">
      <path
         d="M 0,0 H 1213 V 1621 H 0 Z"
         transform="scale(1,-0.99999999)"
         id="path70" />
    </clipPath>
    <clipPath
       clipPathUnits="userSpaceOnUse"
       id="clipPath71">
      <path
         d="M 0,0 H 1213 V 1621 H 0 Z"
         id="path71" />
    </clipPath>
    <clipPath
       clipPathUnits="userSpaceOnUse"
       id="clipPath72">
      <path
         d="M 0,0 H 1213 V 1621 H 0 Z"
         transform="translate(-211.64456,-537.11902)"
         id="path72" />
    </clipPath>
    <clipPath
       clipPathUnits="userSpaceOnUse"
       id="clipPath73">
      <path
         d="M 166.895,512 H 173 v 9 h -6.105 z"
         transform="translate(-166.99521,-520.45434)"
         id="path73" />
    </clipPath>
    <clipPath
       clipPathUnits="userSpaceOnUse"
       id="clipPath74">
      <path
         d="M 0,0 H 1213 V 1621 H 0 Z"
         transform="translate(-173.47937,-520.45434)"
         id="path74" />
    </clipPath>
    <clipPath
       clipPathUnits="userSpaceOnUse"
       id="clipPath75">
      <path
         d="M 0,0 H 1213 V 1621 H 0 Z"
         transform="translate(-306.53225,-675.67639)"
         id="path75" />
    </clipPath>
  </defs>
  <g
     inkscape:label="Layer 1"
     inkscape:groupmode="layer"
     id="layer1"
     transform="translate(-65.616669,-99.747912)">
    <path
       d="m 255.277,-595.195 c -7.211,0 -13.074,-5.86 -13.074,-13.075 0,-7.214 5.863,-13.078 13.074,-13.078 7.215,0 13.078,5.864 13.078,13.078 0,7.215 -5.863,13.075 -13.078,13.075 z"
       style="fill:none;stroke:#000000;stroke-width:1.5625;stroke-linecap:round;stroke-linejoin:round;stroke-miterlimit:10;stroke-dasharray:none;stroke-opacity:1"
       transform="matrix(0.16935802,0,0,-0.16935944,37.303088,16.163089)"
       clip-path="url(#clipPath44)"
       id="path356" />
    <path
       d="m 251.516,604.645 3.203,3.187 3.203,-3.187 0.594,0.585 -3.196,3.215 3.196,3.184 -0.594,0.605 -3.203,-3.195 -3.203,3.195 -0.606,-0.605 3.207,-3.191 -3.207,-3.188 z"
       style="fill:#000000;fill-opacity:1;fill-rule:nonzero;stroke:none"
       transform="matrix(0.16935802,0,0,0.16935944,37.303088,16.163089)"
       clip-path="url(#clipPath45)"
       id="path357" />
    <text
       xml:space="preserve"
       transform="matrix(0.16935802,0,0,0.16935944,68.400821,122.30139)"
       clip-path="url(#clipPath46)"
       id="text357"><tspan
         style="font-style:italic;font-variant:normal;font-weight:normal;font-size:16.6146px;font-family:'DejaVu Sans';writing-mode:lr-tb;fill:#101010;fill-opacity:1;fill-rule:nonzero;stroke:none"
         x="0"
         y="0"
         id="tspan357">x</tspan></text>
    <text
       xml:space="preserve"
       transform="matrix(0.16935802,0,0,0.16935944,69.812133,123.00706)"
       clip-path="url(#clipPath47)"
       id="text358"><tspan
         style="font-style:italic;font-variant:normal;font-weight:normal;font-size:12.4609px;font-family:'DejaVu Sans';writing-mode:lr-tb;fill:#101010;fill-opacity:1;fill-rule:nonzero;stroke:none"
         x="0"
         y="0"
         id="tspan358">c</tspan></text>
    <text
       xml:space="preserve"
       transform="matrix(0.16935802,0,0,0.16935944,70.75211,122.30139)"
       clip-path="url(#clipPath48)"
       id="text362"><tspan
         style="font-variant:normal;font-weight:normal;font-size:16.6146px;font-family:'DejaVu Sans';writing-mode:lr-tb;fill:#101010;fill-opacity:1;fill-rule:nonzero;stroke:none"
         x="0"
         y="0"
         id="tspan359">(</tspan><tspan
         style="font-style:italic;font-variant:normal;font-weight:normal;font-size:16.6146px;font-family:'DejaVu Sans';writing-mode:lr-tb;fill:#101010;fill-opacity:1;fill-rule:nonzero;stroke:none"
         x="6.4630728"
         y="0"
         id="tspan360">t</tspan><tspan
         style="font-variant:normal;font-weight:normal;font-size:16.6146px;font-family:'DejaVu Sans';writing-mode:lr-tb;fill:#101010;fill-opacity:1;fill-rule:nonzero;stroke:none"
         x="11.081927"
         y="0"
         id="tspan361">)</tspan><tspan
         style="font-style:italic;font-variant:normal;font-weight:normal;font-size:16.6146px;font-family:'DejaVu Sans';writing-mode:lr-tb;fill:#101010;fill-opacity:1;fill-rule:nonzero;stroke:none"
         x="106.66563"
         y="0"
         id="tspan362">x</tspan></text>
    <text
       xml:space="preserve"
       transform="matrix(0.16935802,0,0,0.16935944,90.227467,123.00706)"
       clip-path="url(#clipPath49)"
       id="text363"><tspan
         style="font-style:italic;font-variant:normal;font-weight:normal;font-size:12.4609px;font-family:'DejaVu Sans';writing-mode:lr-tb;fill:#101010;fill-opacity:1;fill-rule:nonzero;stroke:none"
         x="0"
         y="0"
         id="tspan363">s</tspan></text>
    <text
       xml:space="preserve"
       transform="matrix(0.16935802,0,0,0.16935944,91.050972,122.30139)"
       clip-path="url(#clipPath50)"
       id="text367"><tspan
         style="font-variant:normal;font-weight:normal;font-size:16.6146px;font-family:'DejaVu Sans';writing-mode:lr-tb;fill:#101010;fill-opacity:1;fill-rule:nonzero;stroke:none"
         x="0"
         y="0"
         id="tspan364">(</tspan><tspan
         style="font-style:italic;font-variant:normal;font-weight:normal;font-size:16.6146px;font-family:'DejaVu Sans';writing-mode:lr-tb;fill:#101010;fill-opacity:1;fill-rule:nonzero;stroke:none"
         x="6.4630728"
         y="0"
         id="tspan365">t</tspan><tspan
         style="font-variant:normal;font-weight:normal;font-size:16.6146px;font-family:'DejaVu Sans';writing-mode:lr-tb;fill:#101010;fill-opacity:1;fill-rule:nonzero;stroke:none"
         x="11.081927"
         y="0"
         id="tspan366">)</tspan><tspan
         style="font-style:italic;font-variant:normal;font-weight:normal;font-size:16.6146px;font-family:'DejaVu Sans';writing-mode:lr-tb;fill:#101010;fill-opacity:1;fill-rule:nonzero;stroke:none"
         x="194.73335"
         y="0"
         id="tspan367">x</tspan></text>
    <text
       xml:space="preserve"
       transform="matrix(0.16935802,0,0,0.16935944,125.44156,123.00706)"
       clip-path="url(#clipPath51)"
       id="text368"><tspan
         style="font-style:italic;font-variant:normal;font-weight:normal;font-size:12.4609px;font-family:'DejaVu Sans';writing-mode:lr-tb;fill:#101010;fill-opacity:1;fill-rule:nonzero;stroke:none"
         x="0"
         y="0"
         id="tspan368">r</tspan></text>
    <text
       xml:space="preserve"
       transform="matrix(0.16935802,0,0,0.16935944,126.26507,122.30139)"
       clip-path="url(#clipPath52)"
       id="text371"><tspan
         style="font-variant:normal;font-weight:normal;font-size:16.6146px;font-family:'DejaVu Sans';writing-mode:lr-tb;fill:#101010;fill-opacity:1;fill-rule:nonzero;stroke:none"
         x="0"
         y="0"
         id="tspan369">(</tspan><tspan
         style="font-style:italic;font-variant:normal;font-weight:normal;font-size:16.6146px;font-family:'DejaVu Sans';writing-mode:lr-tb;fill:#101010;fill-opacity:1;fill-rule:nonzero;stroke:none"
         x="6.4630728"
         y="0"
         id="tspan370">t</tspan><tspan
         style="font-variant:normal;font-weight:normal;font-size:16.6146px;font-family:'DejaVu Sans';writing-mode:lr-tb;fill:#101010;fill-opacity:1;fill-rule:nonzero;stroke:none"
         x="11.081927"
         y="0"
         id="tspan371">)</tspan></text>
    <path
       d="m 233.402,525.02 h -15.55 v -0.426 l 7.925,-9.844 -7.925,-9.676 v -0.441 h 15.136 l 0.321,3.992 h -0.477 c -0.125,-1.09 -0.43,-1.867 -0.914,-2.332 -0.488,-0.469 -1.164,-0.699 -2.031,-0.699 h -8.766 l 6.656,8.136 -7.453,9.208 h 9.692 c 0.55,0 1.156,-0.11 1.812,-0.321 0.449,-0.152 0.824,-0.418 1.117,-0.801 0.297,-0.382 0.543,-0.98 0.743,-1.793 l 0.472,0.082 z"
       style="fill:#000000;fill-opacity:1;fill-rule:nonzero;stroke:none"
       transform="matrix(0.16935802,0,0,0.16935944,37.303088,16.163089)"
       clip-path="url(#clipPath53)"
       id="path371" />
    <path
       d="m 379.551,-579.953 h 89.281 v -52.305 h -89.281 z"
       style="fill:none;stroke:#000000;stroke-width:2.08333;stroke-linecap:butt;stroke-linejoin:miter;stroke-miterlimit:4;stroke-dasharray:none;stroke-opacity:1"
       transform="matrix(0.16935802,0,0,-0.16935944,37.303088,16.163089)"
       clip-path="url(#clipPath54)"
       id="path372" />
    <text
       xml:space="preserve"
       transform="matrix(0.16935802,0,0,0.16935944,104.98275,119.74418)"
       clip-path="url(#clipPath55)"
       id="text372"><tspan
         style="font-style:italic;font-variant:normal;font-weight:normal;font-size:16.6146px;font-family:'DejaVu Sans';writing-mode:lr-tb;fill:#000000;fill-opacity:1;fill-rule:nonzero;stroke:none"
         x="0"
         y="0"
         id="tspan372">H</tspan></text>
    <text
       xml:space="preserve"
       transform="matrix(0.16935802,0,0,0.16935944,107.33436,120.44986)"
       clip-path="url(#clipPath56)"
       id="text373"><tspan
         style="font-style:italic;font-variant:normal;font-weight:normal;font-size:12.4609px;font-family:'DejaVu Sans';writing-mode:lr-tb;fill:#101010;fill-opacity:1;fill-rule:nonzero;stroke:none"
         x="0"
         y="0"
         id="tspan373">r</tspan></text>
    <text
       xml:space="preserve"
       transform="matrix(0.16935802,0,0,0.16935944,108.15751,119.74418)"
       clip-path="url(#clipPath57)"
       id="text375"><tspan
         style="font-variant:normal;font-weight:normal;font-size:16.6146px;font-family:'DejaVu Sans';writing-mode:lr-tb;fill:#101010;fill-opacity:1;fill-rule:nonzero;stroke:none"
         x="0"
         y="0"
         id="tspan374">(</tspan><tspan
         style="font-style:italic;font-variant:normal;font-weight:normal;font-size:16.6146px;font-family:'DejaVu Sans';writing-mode:lr-tb;fill:#101010;fill-opacity:1;fill-rule:nonzero;stroke:none"
         x="8.4900522"
         y="0"
         id="tspan375">j</tspan></text>
    <text
       xml:space="preserve"
       transform="matrix(0.16935802,0,0,0.16935944,110.60473,119.74418)"
       clip-path="url(#clipPath58)"
       id="text376"><tspan
         style="font-variant:normal;font-weight:normal;font-size:16.6146px;font-family:'DejaVu Sans';writing-mode:lr-tb;fill:#000000;fill-opacity:1;fill-rule:nonzero;stroke:none"
         x="0"
         y="0"
         id="tspan376">Ω</tspan></text>
    <text
       xml:space="preserve"
       transform="matrix(0.16935802,0,0,0.16935944,112.77251,119.74418)"
       clip-path="url(#clipPath59)"
       id="text377"><tspan
         style="font-variant:normal;font-weight:normal;font-size:16.6146px;font-family:'DejaVu Sans';writing-mode:lr-tb;fill:#101010;fill-opacity:1;fill-rule:nonzero;stroke:none"
         x="0"
         y="0"
         id="tspan377">)</tspan></text>
    <text
       xml:space="preserve"
       transform="matrix(0.16935802,0,0,0.16935944,78.133154,104.27885)"
       clip-path="url(#clipPath60)"
       id="text378"><tspan
         style="font-style:italic;font-variant:normal;font-weight:normal;font-size:16.6146px;font-family:'DejaVu Sans';writing-mode:lr-tb;fill:#000000;fill-opacity:1;fill-rule:nonzero;stroke:none"
         x="0"
         y="0"
         id="tspan378"></tspan></text>
    <text
       xml:space="preserve"
       transform="matrix(0.16935802,0,0,0.16935944,79.54447,104.27885)"
       clip-path="url(#clipPath61)"
       id="text380"><tspan
         style="font-variant:normal;font-weight:normal;font-size:16.6146px;font-family:'DejaVu Sans';writing-mode:lr-tb;fill:#101010;fill-opacity:1;fill-rule:nonzero;stroke:none"
         x="0"
         y="0"
         id="tspan379">(</tspan><tspan
         style="font-style:italic;font-variant:normal;font-weight:normal;font-size:16.6146px;font-family:'DejaVu Sans';writing-mode:lr-tb;fill:#101010;fill-opacity:1;fill-rule:nonzero;stroke:none"
         x="6.4630728"
         y="0"
         id="tspan380">t </tspan></text>
    <text
       xml:space="preserve"
       transform="matrix(0.16935802,0,0,0.16935944,82.13282,104.27885)"
       clip-path="url(#clipPath62)"
       id="text381"><tspan
         style="font-variant:normal;font-weight:normal;font-size:16.6146px;font-family:'DejaVu Sans';writing-mode:lr-tb;fill:#000000;fill-opacity:1;fill-rule:nonzero;stroke:none"
         x="0"
         y="0"
         id="tspan381">−</tspan></text>
    <text
       xml:space="preserve"
       transform="matrix(0.16935802,0,0,0.16935944,84.385904,104.27885)"
       clip-path="url(#clipPath63)"
       id="text383"><tspan
         style="font-style:italic;font-variant:normal;font-weight:normal;font-size:16.6146px;font-family:'DejaVu Sans';writing-mode:lr-tb;fill:#101010;fill-opacity:1;fill-rule:nonzero;stroke:none"
         x="0"
         y="0"
         id="tspan382">nT</tspan><tspan
         style="font-variant:normal;font-weight:normal;font-size:16.6146px;font-family:'DejaVu Sans';writing-mode:lr-tb;fill:#101010;fill-opacity:1;fill-rule:nonzero;stroke:none"
         x="20.369478"
         y="0"
         id="tspan383">)</tspan></text>
    <path
       d="m 469.023,-607.258 h 37.086"
       style="fill:none;stroke:#101010;stroke-width:2.08333;stroke-linecap:butt;stroke-linejoin:miter;stroke-miterlimit:4;stroke-dasharray:none;stroke-opacity:1"
       transform="matrix(0.16935802,0,0,-0.16935944,37.303088,16.163089)"
       clip-path="url(#clipPath64)"
       id="path383" />
    <path
       d="m 504.941,607.258 -2.511,-4.129 0.144,-0.094 6.727,2.676 c 2.347,0.516 4.691,1.031 7.039,1.547 -2.348,0.515 -4.692,1.031 -7.039,1.547 l -6.727,2.675 -0.144,-0.07 z"
       style="fill:#101010;fill-opacity:1;fill-rule:nonzero;stroke:none"
       transform="matrix(0.16935802,0,0,0.16935944,37.303088,16.163089)"
       clip-path="url(#clipPath65)"
       id="path384" />
    <path
       d="M 268.332,-607.258 H 368.32"
       style="fill:none;stroke:#101010;stroke-width:2.08333;stroke-linecap:butt;stroke-linejoin:miter;stroke-miterlimit:4;stroke-dasharray:none;stroke-opacity:1"
       transform="matrix(0.16935802,0,0,-0.16935944,37.303088,16.163089)"
       clip-path="url(#clipPath66)"
       id="path385" />
    <path
       d="m 367.152,607.258 -2.511,-4.129 0.14,-0.094 6.735,2.676 c 2.343,0.516 4.691,1.031 7.035,1.547 -2.344,0.515 -4.692,1.031 -7.035,1.547 l -6.735,2.675 -0.14,-0.07 z"
       style="fill:#101010;fill-opacity:1;fill-rule:nonzero;stroke:none"
       transform="matrix(0.16935802,0,0,0.16935944,37.303088,16.163089)"
       clip-path="url(#clipPath67)"
       id="path386" />
    <path
       d="m 194.719,-607.258 h 37.086"
       style="fill:none;stroke:#101010;stroke-width:2.08333;stroke-linecap:butt;stroke-linejoin:miter;stroke-miterlimit:4;stroke-dasharray:none;stroke-opacity:1"
       transform="matrix(0.16935802,0,0,-0.16935944,37.303088,16.163089)"
       clip-path="url(#clipPath68)"
       id="path387" />
    <path
       d="m 230.637,607.258 -2.512,-4.129 0.141,-0.094 6.734,2.676 c 2.344,0.516 4.691,1.031 7.035,1.547 -2.344,0.515 -4.691,1.031 -7.035,1.547 l -6.734,2.675 -0.141,-0.07 z"
       style="fill:#101010;fill-opacity:1;fill-rule:nonzero;stroke:none"
       transform="matrix(0.16935802,0,0,0.16935944,37.303088,16.163089)"
       clip-path="url(#clipPath69)"
       id="path388" />
    <path
       d="m 254.156,-547.332 v -37.086"
       style="fill:none;stroke:#101010;stroke-width:2.08333;stroke-linecap:butt;stroke-linejoin:miter;stroke-miterlimit:4;stroke-dasharray:none;stroke-opacity:1"
       transform="matrix(0.16935802,0,0,-0.16935944,37.303088,16.163089)"
       clip-path="url(#clipPath70)"
       id="path389" />
    <path
       d="m 254.156,583.25 4.133,-2.512 0.09,0.141 -2.672,6.734 c -0.516,2.344 -1.031,4.692 -1.551,7.035 -0.515,-2.343 -1.031,-4.691 -1.543,-7.035 l -2.675,-6.734 0.07,-0.141 z"
       style="fill:#101010;fill-opacity:1;fill-rule:nonzero;stroke:none"
       transform="matrix(0.16935802,0,0,0.16935944,37.303088,16.163089)"
       clip-path="url(#clipPath71)"
       id="path390" />
    <text
       xml:space="preserve"
       transform="matrix(0.16935802,0,0,0.16935944,73.146793,107.12926)"
       clip-path="url(#clipPath72)"
       id="text392"><tspan
         style="font-style:italic;font-variant:normal;font-weight:normal;font-size:12.4609px;font-family:'DejaVu Sans';writing-mode:lr-tb;fill:#101010;fill-opacity:1;fill-rule:nonzero;stroke:none"
         x="0"
         y="0"
         id="tspan390">n=</tspan><tspan
         style="font-variant:normal;font-weight:normal;font-size:12.4609px;font-family:'DejaVu Sans';writing-mode:lr-tb;fill:#101010;fill-opacity:1;fill-rule:nonzero;stroke:none"
         x="14.454687"
         y="0"
         id="tspan391">−</tspan><tspan
         style="font-variant:normal;font-weight:normal;font-size:12.4609px;font-family:'DejaVu Sans';writing-mode:lr-tb;fill:#101010;fill-opacity:1;fill-rule:nonzero;stroke:none"
         x="10.649989"
         y="-34.725006"
         id="tspan392"></tspan></text>
    <text
       xml:space="preserve"
       transform="matrix(0.16935802,0,0,0.16935944,65.585067,104.30694)"
       clip-path="url(#clipPath73)"
       id="text393"><tspan
         style="font-style:italic;font-variant:normal;font-weight:normal;font-size:16.6146px;font-family:'DejaVu Sans';writing-mode:lr-tb;fill:#101010;fill-opacity:1;fill-rule:nonzero;stroke:none"
         x="0"
         y="0"
         id="tspan393">s</tspan></text>
    <text
       xml:space="preserve"
       transform="matrix(0.16935802,0,0,0.16935944,66.683212,104.30694)"
       clip-path="url(#clipPath74)"
       id="text396"><tspan
         style="font-variant:normal;font-weight:normal;font-size:16.6146px;font-family:'DejaVu Sans';writing-mode:lr-tb;fill:#101010;fill-opacity:1;fill-rule:nonzero;stroke:none"
         x="0"
         y="0"
         id="tspan394">(</tspan><tspan
         style="font-style:italic;font-variant:normal;font-weight:normal;font-size:16.6146px;font-family:'DejaVu Sans';writing-mode:lr-tb;fill:#101010;fill-opacity:1;fill-rule:nonzero;stroke:none"
         x="6.4630728"
         y="0"
         id="tspan395">t</tspan><tspan
         style="font-variant:normal;font-weight:normal;font-size:16.6146px;font-family:'DejaVu Sans';writing-mode:lr-tb;fill:#101010;fill-opacity:1;fill-rule:nonzero;stroke:none"
         x="11.081927"
         y="0"
         id="tspan396">) = </tspan></text>
    <text
       xml:space="preserve"
       transform="matrix(0.16935802,0,0,0.16935944,89.216785,130.59526)"
       clip-path="url(#clipPath75)"
       id="text397"><tspan
         style="font-variant:normal;font-weight:bold;font-size:19.7298px;font-family:'DejaVu Sans';writing-mode:lr-tb;fill:#7d7d7d;fill-opacity:1;fill-rule:nonzero;stroke:none"
         x="0"
         y="0"
         id="tspan397">Figura P4.28</tspan></text>
  </g>
</svg>
